<?xml version="1.0" encoding="utf-8"?>
<!-- Generator: Adobe Illustrator 24.1.1, SVG Export Plug-In . SVG Version: 6.00 Build 0)  -->
<svg version="1.1" id="Capa_1" xmlns="http://www.w3.org/2000/svg" xmlns:xlink="http://www.w3.org/1999/xlink" x="0px" y="0px"
	 viewBox="0 0 95.3 79.6" style="enable-background:new 0 0 95.3 79.6;" xml:space="preserve">
<style type="text/css">
	.st0{fill:#BEA373;}
</style>
<g id="left-quote" transform="translate(0 -7.858)">
	<g id="Grupo_3">
		<path id="Trazado_5" class="st0" d="M30.5,43.9c-2.3-0.7-4.6-1-7-1c-3,0-6,0.6-8.8,1.8c2.2-8.1,7.5-22,18-23.5
			c1-0.1,1.8-0.9,2-1.8l2.3-8.2c0.4-1.3-0.4-2.7-1.7-3.1c-0.1,0-0.2-0.1-0.3-0.1c-0.8-0.1-1.6-0.2-2.4-0.2C20.1,7.9,7.6,21,2.3,39.9
			c-3.1,11.1-4,27.7,3.6,38.2c4.3,5.9,10.5,9,18.5,9.3h0.1c12.2,0,22.2-9.9,22.2-22.2C46.7,55.3,40.1,46.6,30.5,43.9L30.5,43.9z"/>
		<path id="Trazado_6" class="st0" d="M92.5,54.4c-2.9-5.1-7.7-8.9-13.3-10.5c-2.3-0.7-4.6-1-7-1c-3,0-6,0.6-8.8,1.8
			c2.2-8.1,7.5-22,18-23.5c1-0.1,1.8-0.9,2-1.8l2.3-8.2c0.4-1.3-0.4-2.7-1.7-3.1c-0.1,0-0.2-0.1-0.3-0.1c-0.8-0.1-1.6-0.2-2.4-0.2
			C68.7,7.9,56.2,21,50.9,39.9c-3.1,11.1-4,27.7,3.6,38.2c4.3,5.9,10.5,9,18.5,9.3h0.1c12.2,0,22.2-9.9,22.2-22.2
			C95.3,61.5,94.3,57.7,92.5,54.4L92.5,54.4z"/>
	</g>
</g>
</svg>
