<?xml version="1.0" encoding="utf-8"?>
<!-- Generator: Adobe Illustrator 24.1.1, SVG Export Plug-In . SVG Version: 6.00 Build 0)  -->
<svg version="1.1" id="Capa_1" xmlns="http://www.w3.org/2000/svg" xmlns:xlink="http://www.w3.org/1999/xlink" x="0px" y="0px"
	 viewBox="0 0 25 25" style="enable-background:new 0 0 25 25;" xml:space="preserve">
<style type="text/css">
	.st0{fill:#222221;}
</style>
<path id="XMLID_2086_" class="st0" d="M12.63,3.66c-4.97,0-9,4.03-9,9c0,4.97,4.03,9,9,9c4.97,0,9-4.03,9-9
	C21.63,7.69,17.6,3.66,12.63,3.66z M16.77,16.66c-0.18,0.27-0.5,0.36-0.77,0.18c-2.11-1.3-4.77-1.58-7.92-0.85
	c-0.32,0.09-0.58-0.13-0.67-0.4c-0.09-0.32,0.13-0.59,0.4-0.68c3.42-0.77,6.39-0.45,8.73,0.99C16.86,16.03,16.9,16.39,16.77,16.66z
	 M17.85,14.19c-0.22,0.32-0.63,0.45-0.94,0.23c-2.43-1.48-6.12-1.93-8.96-1.04c-0.36,0.09-0.77-0.09-0.86-0.45
	C7,12.57,7.18,12.16,7.54,12.07c3.28-0.99,7.34-0.49,10.13,1.22C17.94,13.42,18.07,13.87,17.85,14.19z M17.94,11.67
	c-2.88-1.71-7.69-1.89-10.44-1.04c-0.45,0.14-0.9-0.13-1.04-0.54C6.33,9.64,6.6,9.19,7,9.06c3.19-0.95,8.46-0.77,11.79,1.22
	c0.4,0.22,0.54,0.76,0.32,1.17C18.88,11.76,18.34,11.89,17.94,11.67z"/>
</svg>
